PathFileType        4      (X/Y/Z)      Abduction.trc         																																																																												
DataRate	CameraRate	NumFrames	NumMarkers	Units	OrigDataRate	OrigDataStartFrame	OrigNumFrames																																																																					
100	100	9	25	mm	100	747	1991																																																																					
Frame#	Time	AA			AI			Ant_Sh			CV7			GH			LAH			Lat_Sh			LCAJ			LPH			Post_Sh			RAH			RCAJ			RHLE			RHME			RPH			RUA			SJN			SXS			TS			TV8			centelbow			centpxt8			centijc7			centLPHRPH			ScapulaThoracicContactPt		
		X1	Y1	Z1	X2	Y2	Z2	X3	Y3	Z3	X4	Y4	Z4	X5	Y5	Z5	X6	Y6	Z6	X7	Y7	Z7	X8	Y8	Z8	X9	Y9	Z9	X10	Y10	Z10	X11	Y11	Z11	X12	Y12	Z12	X13	Y13	Z13	X14	Y14	Z14	X15	Y15	Z15	X16	Y16	Z16	X17	Y17	Z17	X18	Y18	Z18	X19	Y19	Z19	X20	Y20	Z20	X21	Y21	Z21	X22	Y22	Z22	X23	Y23	Z23	X24	Y24	Z24	X25	Y25	Z25
747	7.46	-459.0865479	1527.902466	1.262918949	-516.4537354	1360.324585	-80.20948792	-349.1296692	1488.682495	-1.858378291	-465.3768311	1597.310913	-190.3837433	-405.3327942	1490.122803	-3.029962301	-255.7931061	1776.211792	-239.430481	-405.6372986	1502.73584	27.08527756	-399.0682678	1568.262817	-375.9446411	-458.579071	1720.970215	-243.2145996	-489.6324158	1492.283325	-4.787234306	-256.3259277	1776.448975	-141.5909729	-401.1135864	1558.404907	-24.78776169	-387.7245178	1211.307251	92.8730545	-425.1305847	1170.578125	-11.44831562	-453.9941406	1725.253662	-128.2738953	-481.5110779	1339.033691	43.13665771	-299.1962585	1509.343994	-196.6188049	-244.5862885	1336.200195	-200.0698395	-516.0791626	1503.827637	-112.5551529	-481.9649048	1306.805542	-205.7345734	-406.4275513	1190.942688	40.71236944	-363.2755966	1321.502869	-202.9022064	-382.2865448	1553.327454	-193.5012741	-456.2866058	1723.111938	-185.7442474	-497.2064819	1464.018229	-63.83390729
748	7.47	-458.9772949	1527.991455	1.436914682	-516.4603882	1360.331787	-80.1353302	-349.0695496	1488.574951	-1.779171824	-465.3676147	1597.322754	-190.2078247	-405.2986755	1490.098145	-2.876512527	-255.8195801	1776.226318	-239.1840363	-405.5457764	1502.70752	27.28945351	-399.0604858	1568.37793	-375.8896484	-458.6412659	1720.987671	-243.0088348	-489.5827942	1492.381348	-4.521366596	-256.4125366	1776.422241	-141.3025055	-401.0580444	1558.332397	-24.65231705	-387.7934265	1210.63855	91.90569305	-425.2894592	1170.586548	-12.49202633	-454.0627441	1725.205566	-128.142807	-481.5437012	1338.805786	43.08384323	-299.2260437	1509.368042	-196.5814362	-244.5669861	1336.250854	-200.013382	-515.9798584	1503.762939	-112.4217606	-482.0260315	1306.836914	-205.7817535	-406.5414429	1190.612549	39.70683336	-363.2965088	1321.543884	-202.8975677	-382.2968292	1553.345398	-193.3946304	-456.352005	1723.096619	-185.5758209	-497.1391805	1464.028727	-63.70672536
749	7.48	-458.9181213	1528.031738	1.587595224	-516.4871826	1360.308594	-80.04894257	-349.0166016	1488.500244	-1.675325155	-465.4036255	1597.296265	-190.0921173	-405.2488098	1490.091309	-2.746772766	-255.8518219	1776.196533	-239.0120087	-405.4682617	1502.638672	27.40096283	-399.1072083	1568.454102	-375.7561646	-458.686554	1720.990234	-242.7983704	-489.5093994	1492.47522	-4.352273941	-256.4320679	1776.354858	-141.1696167	-400.9689636	1558.336304	-24.4913044	-388.0310974	1210.130493	90.96088409	-425.577179	1170.565308	-13.51880074	-454.0797729	1725.190918	-128.0110321	-481.550293	1338.634888	42.98203659	-299.1560059	1509.381836	-196.5120697	-244.5141754	1336.283569	-200.0394287	-515.9123535	1503.69043	-112.2092056	-482.0606995	1306.803467	-205.777832	-406.8041382	1190.3479	38.72104168	-363.2874374	1321.543518	-202.9086304	-382.2798157	1553.33905	-193.3020935	-456.3831635	1723.090576	-185.4047012	-497.1058858	1464.010254	-63.55685099
750	7.49	-458.8401489	1528.053711	1.785081625	-516.5475464	1360.352661	-79.9826889	-348.9894104	1488.422485	-1.586469531	-465.3947754	1597.299561	-189.9716339	-405.1813965	1490.053467	-2.623980761	-255.8686066	1776.162964	-238.8044434	-405.3742981	1502.582031	27.52041245	-399.0879822	1568.574585	-375.6822815	-458.7106323	1721.002686	-242.6128387	-489.4200439	1492.498657	-4.179339409	-256.4780579	1776.263184	-141.0305328	-400.886261	1558.22937	-24.38075638	-387.9892883	1209.731689	89.97912598	-425.8845215	1170.60376	-14.44925499	-454.0938721	1725.161255	-127.8899689	-481.6052551	1338.429565	42.86064911	-299.1317139	1509.407837	-196.4234314	-244.5095062	1336.305176	-200.0596161	-515.8381958	1503.657349	-112.1197433	-482.1651611	1306.848511	-205.8319244	-406.9369049	1190.167725	37.76493549	-363.3373337	1321.576843	-202.9457703	-382.2632446	1553.353699	-193.1975327	-456.4022522	1723.08197	-185.2514038	-497.075297	1464.02124	-63.43911688
751	7.5	-458.7367249	1528.089844	1.90534234	-516.5827637	1360.30249	-79.96868134	-348.9603882	1488.339478	-1.491671443	-465.3820496	1597.275391	-189.8836212	-405.1283875	1489.999634	-2.478757381	-255.884964	1776.182495	-238.6526184	-405.2878723	1502.52124	27.65327835	-399.1213989	1568.679443	-375.5984802	-458.7476501	1720.995117	-242.4159546	-489.3601074	1492.489014	-3.959032059	-256.4613342	1776.242554	-140.7833099	-400.8017578	1558.25293	-24.21450043	-390.0057373	1209.137939	88.98175049	-426.0514526	1170.553711	-15.18325043	-454.0671997	1725.114014	-127.7353439	-481.6229858	1338.286377	42.77816391	-299.10495	1509.445068	-196.2988892	-244.4561768	1336.337158	-200.0855713	-515.7466431	1503.622681	-112.0341263	-482.1168213	1306.876953	-205.8822632	-408.028595	1189.845825	36.89925003	-363.286499	1321.607056	-202.9839172	-382.2434998	1553.360229	-193.0912552	-456.4074249	1723.054565	-185.0756493	-497.0220439	1464.005005	-63.36582176
752	7.51	-458.71698	1528.014648	2.088258982	-516.6357422	1360.342651	-79.95373535	-348.9512024	1488.274292	-1.363581181	-465.3850098	1597.267944	-189.7691193	-405.0629578	1489.971069	-2.35377121	-255.9225464	1776.21582	-238.4918823	-405.2182922	1502.384399	27.71979523	-399.1963806	1568.779175	-375.4890747	-458.8062439	1721.004639	-242.2748566	-489.3218384	1492.518921	-3.840666771	-256.494873	1776.241211	-140.7105865	-400.7349243	1558.256592	-24.05230141	-390.0938721	1208.759277	88.45866394	-426.0040588	1170.552979	-15.87108803	-454.0814819	1725.053345	-127.6028214	-481.7072144	1338.136475	42.7111969	-299.0686951	1509.416626	-196.2441864	-244.4276886	1336.340332	-200.1133728	-515.6764526	1503.58728	-111.9614944	-482.177063	1306.859375	-205.917572	-408.0489655	1189.656128	36.29378796	-363.3023758	1321.599854	-203.0154724	-382.2268524	1553.342285	-193.0066528	-456.4438629	1723.028992	-184.938839	-497.0097249	1463.981527	-63.27565694
753	7.52	-458.6772156	1527.991577	2.223806858	-516.6258545	1360.25293	-80.00323486	-348.9067993	1488.199097	-1.286646485	-465.399292	1597.294434	-189.6529388	-405.0252991	1489.931519	-2.300847769	-255.9409332	1776.252319	-238.3547058	-405.1856384	1502.376343	27.83008957	-399.1585083	1568.868408	-375.401123	-458.7969971	1721.007813	-242.1179199	-489.3119812	1492.533569	-3.82412076	-256.5085449	1776.21814	-140.6102295	-400.6701965	1558.234253	-23.89222145	-390.2471619	1208.491455	88.04061127	-426.1062622	1170.556274	-16.52144814	-454.0747375	1725.05188	-127.4519348	-481.7704468	1338.085693	44.79224777	-299.0859985	1509.467896	-196.128067	-244.4432678	1336.36145	-200.1808624	-515.6228638	1503.53772	-111.9061279	-482.2483521	1306.879272	-205.9715729	-408.176712	1189.523865	35.75958157	-363.3458099	1321.620361	-203.0762177	-382.2426453	1553.381165	-192.8905029	-456.4358673	1723.029846	-184.7849274	-496.9753113	1463.927409	-63.22851864
754	7.53	-458.670105	1527.960449	2.283634424	-516.6488647	1360.195557	-80.04650879	-348.9104919	1488.150391	-1.243823647	-465.416687	1597.248047	-189.628952	-405.0686035	1489.895752	-2.23970437	-255.9819336	1776.28772	-238.236969	-405.2174377	1502.322632	27.93111992	-399.2787476	1568.994263	-375.3180542	-458.8543091	1721.008057	-241.999588	-489.3158264	1492.513916	-3.733707666	-256.5784607	1776.236694	-140.438385	-400.6386414	1558.220093	-23.81389999	-390.3161926	1208.199585	87.54537201	-426.1869507	1170.472534	-17.01172638	-454.1073914	1724.979614	-127.3310852	-481.8580017	1337.976929	44.69000626	-299.0628357	1509.456177	-196.0770721	-244.4712524	1336.357544	-200.1529694	-515.5663452	1503.46936	-111.8144226	-482.2929993	1306.83728	-206.022644	-408.2515717	1189.33606	35.26682281	-363.3821259	1321.597412	-203.0878067	-382.2397614	1553.352112	-192.8530121	-456.4808502	1722.993835	-184.6653366	-496.9617716	1463.875122	-63.19243232
755	7.54	-458.6952209	1527.928101	2.325766087	-516.6958618	1360.099121	-80.10502625	-348.9247131	1488.097046	-1.205018997	-465.4338074	1597.283081	-189.5710907	-405.0544739	1489.871704	-2.213832617	-255.9941254	1776.356445	-238.1581879	-405.2041016	1502.307251	27.98706818	-399.230957	1569.083496	-375.3381958	-458.8358459	1721.027222	-241.9550476	-489.3263245	1492.536133	-3.728445768	-256.6177673	1776.234375	-140.322998	-400.631134	1558.192383	-23.78293419	-390.3028259	1207.893677	87.09532928	-426.1271667	1170.431641	-17.5189724	-454.112915	1724.942627	-127.2694397	-481.9398499	1337.826904	44.64561081	-299.0767212	1509.473999	-196.0730286	-244.4986267	1336.401611	-200.1156616	-515.5525513	1503.434448	-111.8509979	-482.2996826	1306.799683	-206.0652924	-408.2149963	1189.162659	34.78817844	-363.3991547	1321.600647	-203.090477	-382.2552643	1553.37854	-192.8220596	-456.4743805	1722.984924	-184.6122437	-496.9812113	1463.820557	-63.21008603
